<svg width="185" height="70" viewBox="0 0 185 70" fill="none" xmlns="http://www.w3.org/2000/svg">
<path d="M16.0832 23.008C17.8202 24.5573 18.7326 25.4877 20.2816 27.2251C21.7078 22.6179 22.5973 20.4475 24.7059 20.711L25.2707 15.2137C21.9948 14.31 17.5141 16.155 16.0832 23.008Z" fill="#18D2DD"/>
<path d="M16.0832 23.0079L14.7277 27.0368C15.4243 29.1266 17.8341 29.296 18.9637 30.3503L20.2816 27.2251C19.3967 25.4365 16.3468 23.3091 16.0832 23.0079Z" fill="#20BBE6"/>
<path d="M32.726 26.1708L29.2996 30.0114C27.2286 23.3468 27.0404 21.6524 24.7059 20.711L25.2707 15.2136C29.1585 15.9729 30.7864 18.3896 32.726 26.1708Z" fill="#26A9E8"/>
<path d="M34.251 30.0491L32.726 26.1708L29.2996 30.0114L30.6928 33.7203L34.251 30.0491Z" fill="#6A6CF1"/>
<path d="M35.3806 32.4024C34.9002 31.5422 34.6497 31.0316 34.251 30.0491C34.251 30.0491 30.6652 33.5438 30.6928 33.7203C30.7204 33.8967 31.3485 35.317 31.7282 35.6406L35.3806 32.4024Z" fill="#7F5DDE"/>
<path d="M39.3342 37.5797L35.3806 32.4024L31.7282 35.6406L35.6253 40.6673L39.3342 37.5797Z" fill="#9E47C2"/>
<path d="M42.3465 41.0627L39.3342 37.5797L35.6253 40.6673L38.1105 43.4537L42.3465 41.0627Z" fill="#C62A9F"/>
<path d="M44.4174 43.5102L42.3465 41.0627L38.1105 43.4537L39.7107 45.2799C41.5438 44.2258 42.5122 43.7424 44.4174 43.5102Z" fill="#E34B71"/>
<path d="M45.227 44.9222L44.4174 43.5102C42.3445 43.7979 41.3067 44.1725 39.7107 45.2799C40.0313 45.6719 40.1703 45.9043 40.3697 46.3342C42.0695 45.4987 43.0546 45.0266 45.227 44.9222Z" fill="#F27450"/>
<path d="M32.8955 54.1284C43.9091 57.1595 47.4862 50.8714 45.227 44.9222C43.2646 44.9672 42.2019 45.2831 40.3697 46.3342C41.1416 49.9677 38.3929 50.8526 34.1192 49.6288C30.5598 52.3597 30.0481 53.4219 32.8955 54.1284Z" fill="#FF9832"/>
<path d="M34.1192 49.6288L32.8767 54.1284L28.3959 53.4695C24.7435 50.9843 31.4835 52.0763 31.6717 49.0264C32.6492 49.1296 33.0868 49.3144 34.1192 49.6288Z" fill="#F27450"/>
<path d="M9.11737 49.064C6.41671 49.4276 4.96599 49.9021 2.7163 51.0408C3.92176 53.4114 6.12869 54.5665 9.11737 54.9825C14.9536 55.2768 20.0745 51.7374 28.3959 53.4695C28.1795 53.3242 28.0758 53.1871 27.8311 53.048C27.3793 52.6411 27.2286 52.3963 27.3416 52.1516C27.4922 51.6056 31.6717 51.2479 31.6717 49.0264L26.4003 48.311C21.9909 52.0749 19.041 49.261 13.8052 48.8381C10.8871 50.2313 10.1717 50.043 9.11737 49.064Z" fill="#E34B71"/>
<path d="M2.03854 48.7628C2.09331 49.7307 2.23571 50.2307 2.7163 51.0408C5.50265 49.6853 6.44399 49.4594 9.11737 49.064C8.94979 48.8912 8.81553 48.4925 8.77849 48.2545C7.8311 48.2481 6.55695 48.0632 6.34985 48.0537C4.58437 47.973 3.44158 48.1986 2.03854 48.7628Z" fill="#D72E89"/>
<path d="M3.28111 44.1691C2.19968 46.0909 1.87901 47.1071 2.03855 48.7628C3.11537 48.2762 4.08836 48.0443 5.59678 48.0423C6.53837 48.1383 7.61567 48.2697 8.77849 48.2545C8.64356 47.0873 8.82261 46.4411 9.49392 45.2987C8.4203 45.1857 7.56548 44.8689 6.6699 44.4557C5.68935 44.2135 4.68501 44.0843 3.28111 44.1691Z" fill="#C62A9F"/>
<path d="M5.8227 41.0627L3.28111 44.1691C5.13846 44.0391 6.07743 44.1751 7.49828 44.9358C8.52258 45.3825 8.92229 45.4155 9.49392 45.2987L11.3389 43.096C9.22046 41.7582 8.01363 41.3 5.8227 41.0627Z" fill="#AA3EB8"/>
<path d="M26.4003 48.311C24.1331 47.6359 20.9491 47.8928 13.8052 48.8381C15.4055 49.0452 16.3845 49.2006 18.0789 49.6477C22.1341 50.7784 24.2352 50.1936 26.4003 48.311Z" fill="#D72E89"/>
<path d="M9.36212 36.9208L5.8227 41.0439C8.1417 41.3714 9.34972 41.8228 11.3389 43.096C12.7212 41.6642 13.5228 40.7238 14.5018 39.0482C10.9441 38.2243 10.2164 37.6247 9.37585 36.9321L9.36212 36.9208Z" fill="#8D53D2"/>
<path d="M14.5018 39.0482C12.3367 38.7093 10.1528 38.0504 9.36212 36.9208L12.2991 32.5718C14.3643 33.1357 13.504 33.645 16.4786 35.6218L14.5018 39.0482Z" fill="#6A6CF1"/>
<path d="M14.7277 27.0368L12.2991 32.5718C13.9982 32.9247 14.8407 34.944 16.4786 35.6218L18.9637 30.3503C17.4199 28.9571 15.7565 29.3673 14.7277 27.0368Z" fill="#2B9BEA"/>
<path d="M16.0832 23.008C17.8202 24.5573 18.7326 25.4877 20.2816 27.2251C21.7078 22.6179 22.5973 20.4475 24.7059 20.711L25.2707 15.2137C21.9948 14.31 17.5141 16.155 16.0832 23.008Z" fill="#18D2DD"/>
<path d="M16.0832 23.0079L14.7277 27.0368C15.4243 29.1266 17.8341 29.296 18.9637 30.3503L20.2816 27.2251C19.3967 25.4365 16.3468 23.3091 16.0832 23.0079Z" fill="#20BBE6"/>
<path d="M32.726 26.1708L29.2996 30.0114C27.2286 23.3468 27.0404 21.6524 24.7059 20.711L25.2707 15.2136C29.1585 15.9729 30.7864 18.3896 32.726 26.1708Z" fill="#26A9E8"/>
<path d="M34.251 30.0491L32.726 26.1708L29.2996 30.0114L30.6928 33.7203L34.251 30.0491Z" fill="#6A6CF1"/>
<path d="M35.3806 32.4024C34.9002 31.5422 34.6497 31.0316 34.251 30.0491C34.251 30.0491 30.6652 33.5438 30.6928 33.7203C30.7204 33.8967 31.3485 35.317 31.7282 35.6406L35.3806 32.4024Z" fill="#7F5DDE"/>
<path d="M39.3342 37.5797L35.3806 32.4024L31.7282 35.6406L35.6253 40.6673L39.3342 37.5797Z" fill="#9E47C2"/>
<path d="M42.3465 41.0627L39.3342 37.5797L35.6253 40.6673L38.1105 43.4537L42.3465 41.0627Z" fill="#C62A9F"/>
<path d="M44.4174 43.5102L42.3465 41.0627L38.1105 43.4537L39.7107 45.2799C41.5438 44.2258 42.5122 43.7424 44.4174 43.5102Z" fill="#E34B71"/>
<path d="M45.227 44.9222L44.4174 43.5102C42.3445 43.7979 41.3067 44.1725 39.7107 45.2799C40.0313 45.6719 40.1703 45.9043 40.3697 46.3342C42.0695 45.4987 43.0546 45.0266 45.227 44.9222Z" fill="#F27450"/>
<path d="M32.8955 54.1284C43.9091 57.1595 47.4862 50.8714 45.227 44.9222C43.2646 44.9672 42.2019 45.2831 40.3697 46.3342C41.1416 49.9677 38.3929 50.8526 34.1192 49.6288C30.5598 52.3597 30.0481 53.4219 32.8955 54.1284Z" fill="#FF9832"/>
<path d="M34.1192 49.6288L32.8767 54.1284L28.3959 53.4695C24.7435 50.9843 31.4835 52.0763 31.6717 49.0264C32.6492 49.1296 33.0868 49.3144 34.1192 49.6288Z" fill="#F27450"/>
<path d="M9.11737 49.064C6.41671 49.4276 4.96599 49.9021 2.7163 51.0408C3.92176 53.4114 6.12869 54.5665 9.11737 54.9825C14.9536 55.2768 20.0745 51.7374 28.3959 53.4695C28.1795 53.3242 28.0758 53.1871 27.8311 53.048C27.3793 52.6411 27.2286 52.3963 27.3416 52.1516C27.4922 51.6056 31.6717 51.2479 31.6717 49.0264L26.4003 48.311C21.9909 52.0749 19.041 49.261 13.8052 48.8381C10.8871 50.2313 10.1717 50.043 9.11737 49.064Z" fill="#E34B71"/>
<path d="M2.03854 48.7628C2.09331 49.7307 2.23571 50.2307 2.7163 51.0408C5.50265 49.6853 6.44399 49.4594 9.11737 49.064C8.94979 48.8912 8.81553 48.4925 8.77849 48.2545C7.8311 48.2481 6.55695 48.0632 6.34985 48.0537C4.58437 47.973 3.44158 48.1986 2.03854 48.7628Z" fill="#D72E89"/>
<path d="M3.28111 44.1691C2.19968 46.0909 1.87901 47.1071 2.03855 48.7628C3.11537 48.2762 4.08836 48.0443 5.59678 48.0423C6.53837 48.1383 7.61567 48.2697 8.77849 48.2545C8.64356 47.0873 8.82261 46.4411 9.49392 45.2987C8.4203 45.1857 7.56548 44.8689 6.6699 44.4557C5.68935 44.2135 4.68501 44.0843 3.28111 44.1691Z" fill="#C62A9F"/>
<path d="M5.8227 41.0627L3.28111 44.1691C5.13846 44.0391 6.07743 44.1751 7.49828 44.9358C8.52258 45.3825 8.92229 45.4155 9.49392 45.2987L11.3389 43.096C9.22046 41.7582 8.01363 41.3 5.8227 41.0627Z" fill="#AA3EB8"/>
<path d="M26.4003 48.311C24.1331 47.6359 20.9491 47.8928 13.8052 48.8381C15.4055 49.0452 16.3845 49.2006 18.0789 49.6477C22.1341 50.7784 24.2352 50.1936 26.4003 48.311Z" fill="#D72E89"/>
<path d="M9.36212 36.9208L5.8227 41.0439C8.1417 41.3714 9.34972 41.8228 11.3389 43.096C12.7212 41.6642 13.5228 40.7238 14.5018 39.0482C10.9441 38.2243 10.2164 37.6247 9.37585 36.9321L9.36212 36.9208Z" fill="#8D53D2"/>
<path d="M14.5018 39.0482C12.3367 38.7093 10.1528 38.0504 9.36212 36.9208L12.2991 32.5718C14.3643 33.1357 13.504 33.645 16.4786 35.6218L14.5018 39.0482Z" fill="#6A6CF1"/>
<path d="M14.7277 27.0368L12.2991 32.5718C13.9982 32.9247 14.8407 34.944 16.4786 35.6218L18.9637 30.3503C17.4199 28.9571 15.7565 29.3673 14.7277 27.0368Z" fill="#2B9BEA"/>
<path d="M74.4345 46.5744C74.7217 46.3133 75.009 46.1827 75.2963 46.1827C75.6096 46.1827 75.8577 46.3655 76.0406 46.7311C76.2495 47.0706 76.3539 47.4885 76.3539 47.9847C76.3539 49.0815 75.9622 49.9564 75.1787 50.6093C73.8207 51.7322 72.2799 52.2937 70.5563 52.2937C68.0753 52.2937 66.2603 51.2622 65.1112 49.199C63.9622 47.1098 63.3876 44.3938 63.3876 41.051C63.3876 37.8649 63.7924 34.2349 64.602 30.1609C65.4377 26.0869 66.652 22.5874 68.2451 19.6625C69.8642 16.7375 71.7837 15.2751 74.0035 15.2751C75.2571 15.2751 76.2364 15.8627 76.9415 17.0379C77.6728 18.1869 78.0384 19.8453 78.0384 22.0129C78.0384 25.1206 77.1766 28.7245 75.453 32.8247C73.7555 36.9248 71.4312 40.9727 68.4801 44.9683C68.6629 46.0391 68.9894 46.8095 69.4595 47.2796C69.9295 47.7496 70.5694 47.9847 71.3789 47.9847C71.8229 47.9847 72.3191 47.8541 72.8675 47.5929C73.4421 47.3318 73.9644 46.9923 74.4345 46.5744ZM73.1417 19.1532C72.5411 19.1532 71.8621 20.237 71.1047 22.4046C70.3474 24.5722 69.6814 27.2621 69.1069 30.4743C68.5324 33.6865 68.219 36.7681 68.1667 39.7191C70.0209 36.6636 71.4965 33.6081 72.5933 30.5526C73.6902 27.471 74.2386 24.6636 74.2386 22.1304C74.2386 20.1456 73.873 19.1532 73.1417 19.1532Z" fill="white"/>
<path d="M78.6583 29.9099C78.2757 29.5274 78.0844 29.0619 78.0844 28.5136C78.0844 27.9653 78.2757 27.4999 78.6583 27.1173C79.0536 26.722 79.5254 26.5244 80.0737 26.5244C80.622 26.5244 81.0875 26.722 81.47 27.1173C81.8526 27.4999 82.0438 27.9653 82.0438 28.5136C82.0438 29.0619 81.8526 29.5274 81.47 29.9099C81.0875 30.2925 80.622 30.4838 80.0737 30.4838C79.5254 30.4838 79.0536 30.2925 78.6583 29.9099ZM78.6009 52.0979V33.1807H81.5274V52.0979H78.6009Z" fill="white"/>
<path d="M82.8778 35.763V33.1807H86.0147V27.9972H88.9986V33.1807H92.8432V35.763H88.9986V47.5073C88.9986 48.2468 89.158 48.8398 89.4768 49.2861C89.7956 49.7197 90.261 49.9364 90.8731 49.9364C91.7402 49.9364 92.4097 49.6623 92.8815 49.114L93.7422 51.3519C92.8879 52.168 91.7275 52.576 90.261 52.576C88.8711 52.576 87.8127 52.1935 87.0859 51.4284C86.3718 50.6505 86.0147 49.5539 86.0147 48.1385V35.763H82.8778Z" fill="white"/>
<path d="M92.4339 35.763V33.1807H95.5708V27.9972H98.5547V33.1807H102.399V35.763H98.5547V47.5073C98.5547 48.2468 98.7141 48.8398 99.0329 49.2861C99.3517 49.7197 99.8171 49.9364 100.429 49.9364C101.296 49.9364 101.966 49.6623 102.438 49.114L103.298 51.3519C102.444 52.168 101.284 52.576 99.8171 52.576C98.4272 52.576 97.3688 52.1935 96.642 51.4284C95.9279 50.6505 95.5708 49.5539 95.5708 48.1385V35.763H92.4339Z" fill="white"/>
<path d="M104.553 52.0979V25.9697H107.48V52.0979H104.553Z" fill="white"/>
<path d="M110.284 42.6106C110.284 40.7999 110.679 39.1421 111.47 37.6374C112.273 36.12 113.389 34.9213 114.817 34.0415C116.245 33.1489 117.845 32.7025 119.618 32.7025C121.48 32.7025 123.106 33.1552 124.495 34.0606C125.885 34.966 126.931 36.1838 127.632 37.714C128.346 39.2314 128.704 40.9465 128.704 42.8593V43.6052H113.421C113.535 45.467 114.198 47.0227 115.41 48.2724C116.634 49.522 118.228 50.1468 120.192 50.1468C121.301 50.1468 122.366 49.9364 123.386 49.5156C124.419 49.0948 125.318 48.4955 126.083 47.7177L127.479 49.6304C125.477 51.5942 122.972 52.576 119.962 52.576C117.131 52.576 114.811 51.6515 113 49.8026C111.189 47.9536 110.284 45.5562 110.284 42.6106ZM113.382 41.4056H125.796C125.783 40.6787 125.649 39.9583 125.394 39.2442C125.152 38.5301 124.789 37.8606 124.304 37.2358C123.82 36.6109 123.169 36.1072 122.353 35.7247C121.537 35.3294 120.613 35.1317 119.58 35.1317C118.611 35.1317 117.731 35.323 116.94 35.7056C116.149 36.0881 115.506 36.5918 115.008 37.2166C114.524 37.8287 114.141 38.4982 113.861 39.225C113.58 39.9391 113.421 40.666 113.382 41.4056Z" fill="white"/>
<path d="M150.499 43.4406C150.838 43.4406 151.1 43.6103 151.282 43.9498C151.491 44.2632 151.596 44.668 151.596 45.1642C151.596 45.7649 151.504 46.2349 151.322 46.5744C151.139 46.9139 150.852 47.2143 150.46 47.4754C148.214 48.9901 146.569 50.1131 145.524 50.8443L143.017 52.5288C142.024 57.9347 140.719 62.1784 139.1 65.26C137.507 68.3678 135.47 69.9216 132.989 69.9216C131.657 69.9216 130.573 69.5038 129.737 68.6681C128.901 67.8585 128.484 66.7878 128.484 65.4559C128.484 63.6017 129.215 61.6039 130.677 59.4624C132.14 57.3471 134.882 54.7355 138.904 51.6278L139.139 50.1C138.695 50.8051 138.107 51.3536 137.376 51.7453C136.671 52.1109 135.966 52.2937 135.261 52.2937C133.641 52.2937 132.349 51.7061 131.382 50.5309C130.416 49.3557 129.933 47.8149 129.933 45.9085C129.933 43.8193 130.416 41.8475 131.382 39.9933C132.349 38.113 133.628 36.6114 135.221 35.4884C136.841 34.3394 138.551 33.7648 140.353 33.7648C140.928 33.7648 141.306 33.8823 141.489 34.1174C141.698 34.3263 141.868 34.718 141.998 35.2926C142.495 35.1881 143.069 35.1359 143.722 35.1359C144.375 35.1359 144.832 35.2403 145.093 35.4493C145.38 35.6321 145.524 36.0107 145.524 36.5853C145.524 36.8987 145.511 37.1468 145.485 37.3296C145.38 38.1391 145.054 40.1892 144.505 43.4798C144.401 44.1065 144.283 44.7986 144.153 45.5559C144.048 46.2872 143.931 47.0706 143.8 47.9063C145.811 46.3394 147.744 44.9553 149.598 43.754C149.937 43.545 150.238 43.4406 150.499 43.4406ZM136.671 48.3372C137.271 48.3372 137.846 47.9716 138.394 47.2404C138.943 46.5091 139.335 45.4645 139.57 44.1065L140.823 37.4079C139.752 37.434 138.76 37.8519 137.846 38.6615C136.932 39.4449 136.201 40.4895 135.652 41.7953C135.104 43.1011 134.83 44.4852 134.83 45.9477C134.83 46.7572 134.986 47.3579 135.3 47.7496C135.639 48.1414 136.096 48.3372 136.671 48.3372ZM133.419 66.1219C134.072 66.1219 134.804 65.3384 135.613 63.7715C136.449 62.2045 137.245 59.7105 138.003 56.2894C135.992 58.013 134.542 59.5669 133.654 60.951C132.767 62.3351 132.323 63.5495 132.323 64.5941C132.323 65.0381 132.401 65.4037 132.558 65.6909C132.74 65.9782 133.028 66.1219 133.419 66.1219Z" fill="white"/>
<path d="M170.488 43.3622C170.828 43.3622 171.089 43.5189 171.272 43.8323C171.481 44.1457 171.585 44.5766 171.585 45.125C171.585 46.1697 171.337 46.9792 170.841 47.5538C169.718 48.9379 168.504 50.0739 167.198 50.9618C165.918 51.8498 164.456 52.2937 162.81 52.2937C161.426 52.2937 160.303 51.7975 159.441 50.8051C157.953 51.7714 156.399 52.2676 154.78 52.2937C154.44 57.334 153.67 61.5386 152.469 64.9075C151.267 68.3025 149.505 70 147.18 70C145.77 70 144.725 69.4907 144.046 68.4722C143.367 67.4537 143.028 66.0435 143.028 64.2415C143.028 61.6822 143.616 58.692 144.791 55.2709C145.966 51.8759 147.781 48.1283 150.236 44.0282C150.236 40.2153 150.21 37.5646 150.157 36.076C150.131 35.3187 150.432 34.718 151.058 34.2741C151.685 33.8301 152.469 33.6081 153.409 33.6081C153.957 33.6081 154.349 33.7256 154.584 33.9607C154.845 34.1696 154.989 34.6005 155.015 35.2534C155.015 35.9063 155.028 36.3894 155.054 36.7028C155.89 35.6582 156.712 34.9139 157.522 34.4699C158.332 33.9999 159.193 33.7648 160.107 33.7648C161.57 33.7648 162.758 34.3524 163.672 35.5276C164.612 36.7028 165.082 38.2436 165.082 40.15C165.082 41.5342 164.86 42.8791 164.416 44.1849C163.972 45.4907 163.359 46.6789 162.575 47.7496C163.124 47.9063 163.581 47.9847 163.946 47.9847C164.808 47.9847 165.631 47.6713 166.414 47.0445C167.198 46.4177 168.203 45.3731 169.431 43.9107C169.744 43.545 170.097 43.3622 170.488 43.3622ZM154.976 48.5331C155.916 48.3242 156.778 47.8149 157.561 47.0053C158.371 46.1697 159.011 45.1511 159.481 43.9498C159.951 42.7224 160.186 41.4428 160.186 40.1109C160.186 39.3274 160.029 38.7398 159.716 38.3481C159.402 37.9302 158.984 37.7213 158.462 37.7213C157.522 37.7213 156.386 38.7137 155.054 40.6985C155.028 41.8475 155.015 43.532 155.015 45.7518C155.015 46.9531 155.002 47.8802 154.976 48.5331ZM147.494 66.161C148.199 66.161 148.786 64.6202 149.256 61.5386C149.727 58.4831 150.027 54.6702 150.157 50.1C149.034 52.7116 148.147 55.2056 147.494 57.5821C146.841 59.9586 146.514 61.9564 146.514 63.5756C146.514 64.4113 146.619 65.0511 146.828 65.4951C147.011 65.939 147.232 66.161 147.494 66.161Z" fill="white"/>
<path d="M174.893 37.5646C174.841 38.8704 174.815 39.8889 174.815 40.6201C174.815 42.5004 174.906 43.976 175.089 45.0467C175.298 46.0913 175.624 46.8487 176.068 47.3187C176.538 47.7627 177.178 47.9847 177.988 47.9847C178.406 47.9847 178.902 47.8541 179.476 47.5929C180.051 47.3318 180.573 46.9923 181.043 46.5744C181.331 46.3133 181.618 46.1827 181.905 46.1827C182.219 46.1827 182.467 46.3655 182.649 46.7311C182.858 47.0706 182.963 47.4885 182.963 47.9847C182.963 48.4809 182.858 48.964 182.649 49.4341C182.467 49.9042 182.179 50.2959 181.788 50.6093C180.43 51.7322 178.889 52.2937 177.165 52.2937C174.684 52.2937 172.869 51.2622 171.72 49.199C170.571 47.1098 169.996 44.3938 169.996 41.051C169.996 39.9019 170.036 38.7398 170.114 37.5646H168.586C167.803 37.5646 167.267 37.421 166.98 37.1337C166.719 36.8464 166.588 36.3894 166.588 35.7626C166.588 34.3002 167.176 33.5689 168.351 33.5689H170.584C171.028 30.6962 171.707 28.0716 172.621 25.6951C173.535 23.3186 174.632 21.4253 175.912 20.015C177.217 18.6048 178.615 17.8997 180.103 17.8997C181.2 17.8997 182.062 18.3828 182.689 19.3491C183.315 20.3154 183.629 21.5297 183.629 22.9922C183.629 27.0401 181.931 30.5657 178.536 33.5689H182.924C183.341 33.5689 183.642 33.6603 183.825 33.8432C184.007 34.026 184.099 34.3655 184.099 34.8617C184.099 36.6636 182.623 37.5646 179.672 37.5646H174.893ZM179.045 21.6603C178.654 21.6603 178.21 22.1565 177.714 23.1489C177.244 24.1152 176.787 25.4732 176.343 27.2229C175.925 28.9465 175.572 30.866 175.285 32.9813C176.826 31.6495 177.975 30.1609 178.732 28.5156C179.516 26.8442 179.907 25.3295 179.907 23.9715C179.907 22.4307 179.62 21.6603 179.045 21.6603Z" fill="white"/>
</svg>
